<svg width="31" height="31" viewBox="0 0 31 31" fill="none" xmlns="http://www.w3.org/2000/svg">
<path d="M14.7535 19.1566L14.7512 19.1664L14.7491 19.1763C14.6149 19.8042 14.7226 20.432 15.0162 20.958C14.9242 21.1261 14.8512 21.3047 14.7987 21.4904H4.63417C4.05823 21.4904 3.58301 21.0166 3.58301 20.4341V13.3689H4.73635C4.92918 13.9851 5.5052 14.4333 6.18418 14.4333C6.86315 14.4333 7.43917 13.9851 7.632 13.3689H17.9578C18.0465 13.6523 18.2162 13.9001 18.4397 14.0851C18.4026 14.1072 18.3656 14.1296 18.3287 14.1523L18.3287 14.1523L18.3221 14.1564C17.9059 14.417 17.5738 14.7923 17.3657 15.2371C17.3088 15.3588 17.2618 15.4843 17.2249 15.6124C16.6336 15.783 16.1173 16.1651 15.7736 16.7018L15.7691 16.7088L15.7647 16.7159C15.3016 17.4662 14.9597 18.279 14.7535 19.1566ZM8.74451 8.46577H8.77784H16.812H16.8453V8.47094H17.8453H20.9557C21.5349 8.47094 22.0068 8.94289 22.0068 9.52211V10.3408H3.58301V9.51694C3.58301 8.94101 4.05167 8.47094 4.63417 8.47094H7.74451H8.74451V8.46577Z" stroke="#3E3C4C" stroke-width="2"/>
<path d="M26.8319 18.6258C26.8692 18.6271 26.9166 18.6273 26.9713 18.6235L18.169 18.6233C18.2237 18.6272 18.2718 18.6271 18.3109 18.6259C18.4687 18.6207 18.6232 18.5896 18.767 18.5421C19.0577 18.4461 19.3518 18.2682 19.6143 18.0022C19.8776 17.7382 20.0523 17.4459 20.1477 17.1609C20.195 17.0199 20.2264 16.8696 20.2338 16.7169C20.2358 16.6761 20.2367 16.6229 20.2327 16.5612C20.5156 16.4122 20.8099 16.2904 21.113 16.1971C21.1525 16.2423 21.1894 16.2782 21.2185 16.3048C21.3321 16.4089 21.4613 16.4937 21.5946 16.5604C21.8653 16.6957 22.1976 16.779 22.5727 16.779C22.9475 16.779 23.2782 16.6947 23.5469 16.5604C23.6795 16.4941 23.8061 16.411 23.9174 16.3108C23.9491 16.2823 23.9886 16.2443 24.0305 16.1968C24.337 16.2897 24.63 16.41 24.9078 16.558C24.9035 16.6211 24.9044 16.6754 24.9064 16.7169C24.9138 16.8696 24.9453 17.0199 24.9925 17.1609C25.0883 17.447 25.2639 17.7403 25.5288 18.0051C25.7932 18.2695 26.0876 18.4465 26.3771 18.5421C26.5197 18.5892 26.6739 18.6206 26.8319 18.6258ZM21.2105 25.6271C21.1827 25.6531 21.149 25.6866 21.1132 25.7278L27.3359 19.499C27.2899 19.5391 27.2538 19.5761 27.2278 19.6045C27.1187 19.7232 27.0332 19.857 26.9679 19.9904C26.8353 20.2612 26.7549 20.5922 26.7549 20.9612C26.7549 21.3317 26.8349 21.6632 26.9697 21.9355C27.0362 22.0699 27.1219 22.2017 27.2293 22.318C27.2566 22.3475 27.2922 22.3837 27.3363 22.4221C27.2428 22.7253 27.1206 23.019 26.9702 23.301C26.9101 23.2972 26.8583 23.2981 26.8186 23.2999C26.6668 23.307 26.5173 23.3378 26.3771 23.3841C26.0927 23.478 25.7999 23.6504 25.5345 23.9115L25.5345 23.9115L25.5288 23.9172C25.2638 24.1821 25.0879 24.4759 24.992 24.7634C24.9448 24.9053 24.9137 25.0558 24.9064 25.2083C24.9044 25.2508 24.9037 25.3041 24.9077 25.3649C24.6275 25.515 24.3341 25.6364 24.0298 25.7277C23.9918 25.6843 23.9556 25.6487 23.9255 25.621C23.8127 25.5173 23.6843 25.432 23.5506 25.3644C23.2795 25.2275 22.9473 25.1433 22.5727 25.1433C22.1978 25.1433 21.8639 25.2265 21.5909 25.3644C21.4564 25.4324 21.3255 25.5194 21.2105 25.6271ZM18.3952 20.9612C18.3952 23.2649 20.2689 25.1387 22.5727 25.1387C24.8765 25.1387 26.7502 23.2649 26.7502 20.9612C26.7502 18.6574 24.8765 16.7836 22.5727 16.7836C20.2689 16.7836 18.3952 18.6574 18.3952 20.9612Z" stroke="#3E3C4C" stroke-width="2"/>
</svg>
